<svg xmlns="http://www.w3.org/2000/svg" width="17" height="21" viewBox="0 0 17 21">
    <g fill="none">
        <path fill="#5B4ED0" d="M7.076 5.447c.14.046.289-.045.314-.193.162-.949.484-4.111-2.192-5.086-.192-.07-.391-.121-.592-.156L4.598.011c-.398-.07-.775.213-.81.621-.12 1.345.134 3.803 3.288 4.815zM8.097 6.632c.06.009.127-.013.153-.068.908-1.905 2.687-2.142 3.077-2.287.096-.036.19-.075.28-.126.633-.364.633-.97.54-1.378-.053-.242-.3-.389-.535-.32C8.321 3.42 7.983 5.84 7.96 6.465c-.003.083.055.155.137.167z" transform="translate(1)"/>
        <path stroke="#5B4ED0" d="M13.327 6.869s-2.024-1.376-4.394.091l-.213.12c-.62.345-1.37.345-1.989 0l-.213-.12c-2.37-1.467-4.394-.091-4.394-.091C-1.529 9.289.64 14.624.64 14.624c1.64 3.788 3.927 4.932 5.002 5.27.344.108.714.097 1.05-.03l.508-.193c.339-.129.712-.129 1.051 0l.507.192c.337.129.706.14 1.05.031 1.076-.338 3.363-1.482 5.003-5.27 0 0 2.17-5.335-1.484-7.755z" transform="translate(1)"/>
        <path fill="#5B4ED0" d="M3.408 9.431c-.506.61-.916 1.104-1.303.775-.387-.33-.463-1.236.043-1.846.506-.61 1.402-.69 1.79-.36.387.328-.024.822-.53 1.431z" transform="translate(1)"/>
    </g>
</svg>
