<svg xmlns="http://www.w3.org/2000/svg" width="22" height="19" viewBox="0 0 22 19">
    <path fill="#5B4ED0" stroke="#5E49D8" stroke-width=".5" d="M20.21 15.882l-.051.044c-1.7 1.514-3.712 2.168-5.524 1.808-1.634-.328-2.803-1.422-3.93-2.48-1.223-1.146-2.377-2.227-4.078-2.412-1.7-.185-3.558.61-5.025 2.201.57.805 3.284 4.114 7.708 1.38.118-.049.255-.002.32.11.064.113.037.256-.064.336C8.236 17.69 7.038 18 5.993 18c-3.147 0-4.93-2.803-4.953-2.842-.062-.098-.051-.226.025-.313 1.6-1.823 3.64-2.738 5.598-2.524 1.87.203 3.142 1.396 4.368 2.548 1.125 1.042 2.189 2.052 3.681 2.344 1.655.334 3.507-.281 5.082-1.688l.062-.052c.2-.163.391-.337.573-.52-.771-1.845-2.87-2.273-3.289-2.345-.763.474-1.59.836-2.453 1.075-.023.004-.047.004-.07 0-.091.013-.183-.025-.24-.1-.056-.074-.07-.173-.034-.26.035-.087.113-.148.205-.16 2.618-.756 4.239-2.197 4.825-4.278.243-.89.29-1.825.136-2.735-3.553-.37-5.051 1.784-5.272 2.136-.198 1.406-.827 2.808-1.88 4.189-.09.103-.243.118-.35.034-.108-.084-.133-.238-.056-.352 1.027-1.29 1.626-2.623 1.803-3.962h0c.074-.558.074-1.123 0-1.68-.339-2.606-2.222-4.43-2.79-4.927-2.97 2.788-2.438 5.799-1.809 7.414.233.394.44.804.617 1.227.07.125.028.285-.095.357-.123.072-.281.029-.352-.096-.228-.367-.422-.756-.578-1.16-.925-1.589-2.176-2.579-3.73-2.946-.796-.187-1.622-.199-2.423-.034-.743 2.28.812 4.335.827 4.356.087.113.067.277-.045.366-.112.088-.273.068-.36-.046-.075-.096-1.8-2.38-.861-4.988.028-.078.091-.137.17-.16 2.195-.511 4.492.239 5.98 1.954-.354-1.86-.139-4.428 2.484-6.773.095-.079.232-.079.327 0 .115.07 2.718 2.116 3.154 5.393.042.318.06.64.057.961.789-.841 2.487-2.084 5.45-1.717.103.014.188.09.215.193 0 .047.922 3.848-2.246 6.33.905.235 2.57.9 3.232 2.678.083.206-.048.373-.768.985z"/>
</svg>
