<svg xmlns="http://www.w3.org/2000/svg" width="22" height="22" viewBox="0 0 22 22">
    <g fill="none">
        <path stroke="#5B4ED0" d="M10 0C4.486 0 0 4.486 0 10s4.486 10 10 10 10-4.486 10-10S15.514 0 10 0z" transform="translate(1 1)"/>
        <path fill="#5B4ED0" d="M15.937 12.349c-.001-.016-.004-.03-.009-.046-.005-.015-.01-.03-.018-.044-.008-.014-.016-.026-.026-.039-.01-.013-.022-.024-.035-.035-.007-.006-.012-.014-.02-.019-1-.658-3.288-1.083-5.829-1.083s-4.83.425-5.83 1.083c-.007.005-.012.013-.019.019-.013.01-.025.022-.035.035-.01.013-.018.025-.026.04-.007.013-.013.028-.018.043-.005.015-.008.03-.01.046 0 .016-.001.031 0 .047.002.017.005.033.01.05.002.008.002.017.005.025 1.001 2.397 3.326 3.946 5.923 3.946s4.922-1.549 5.923-3.946c.003-.008.003-.017.005-.026.005-.016.008-.032.01-.049.001-.016 0-.031 0-.047zM7.014 6.908c.138.025.267-.064.292-.2.026-.135-.063-.266-.199-.291-2.443-.462-3.574 1.341-3.585 1.36-.072.117-.034.27.083.343.041.025.086.036.13.036.085 0 .167-.042.214-.12.01-.015.96-1.524 3.065-1.128zM12.893 6.417c-.136.025-.225.156-.2.292.026.135.155.224.293.199 2.092-.393 3.027 1.067 3.066 1.13.047.076.129.118.213.118.044 0 .089-.011.13-.036.117-.072.155-.226.083-.344-.011-.018-1.141-1.82-3.585-1.36z" transform="translate(1 1)"/>
    </g>
</svg>
