<svg xmlns="http://www.w3.org/2000/svg" width="19" height="20" viewBox="0 0 19 20">
    <g fill="#5B4ED0">
        <path d="M12.103 19.588c-4.041.845-8.35-.866-10.618-4.598C-1.381 10.268.124 4.103 4.825 1.237 5.773.66 6.784.247 7.835.021c.289-.062.577.04.763.268.186.226.206.556.082.804l-.37.804c-1.135 2.825-.867 5.917.7 8.495 1.567 2.598 4.206 4.247 7.237 4.556.29.021.578.042.887.042.289 0 .557.165.68.433.124.268.083.577-.103.804-.7.825-1.525 1.546-2.453 2.103-1.01.618-2.083 1.03-3.155 1.258zM7.526 1.155c-.763.226-1.485.536-2.165.948-4.227 2.577-5.588 8.124-3.01 12.35 1.237 2.042 3.216 3.485 5.546 4.062 2.33.578 4.742.207 6.804-1.051.68-.412 1.299-.907 1.835-1.485-.144 0-.268-.02-.412-.04-3.32-.31-6.248-2.145-7.98-5.011-1.752-2.846-2.02-6.289-.783-9.402.062-.124.103-.248.165-.371z"/>
        <path d="M14.598 11.36h-3.196c-.144 0-.289-.082-.35-.205-.062-.124-.042-.289.04-.413L13.815 7.3h-2.412c-.206 0-.392-.165-.392-.392 0-.206.165-.392.392-.392h3.196c.144 0 .289.083.35.207.062.123.042.288-.04.412l-2.722 3.464h2.412c.206 0 .392.165.392.392-.02.206-.186.37-.392.37zM18.144 7.093h-1.587c-.083 0-.145-.041-.165-.103-.041-.062-.02-.145.02-.206l1.361-1.732h-1.196c-.103 0-.185-.083-.185-.186s.082-.186.185-.186h1.567c.083 0 .145.042.165.104.042.061.02.144-.02.206l-1.361 1.732h1.216c.103 0 .186.082.186.185s-.083.186-.186.186zM13.794 3.794h-1.588c-.082 0-.144-.041-.165-.103-.041-.062-.02-.145.02-.206l1.362-1.732h-1.196c-.103 0-.186-.083-.186-.186s.083-.186.186-.186h1.587c.083 0 .145.042.165.104.042.061.021.144-.02.206l-1.361 1.732h1.196c.103 0 .185.082.185.185.021.083-.082.186-.185.186z"/>
    </g>
</svg>
