<svg xmlns="http://www.w3.org/2000/svg" width="15" height="20" viewBox="0 0 15 20">
    <path fill="#5B4ED0" d="M7.485 0l-.044.007c-.116.014-.224.07-.3.157 0 0-1.77 2.034-3.545 4.63C1.821 7.391 0 10.511 0 12.954 0 16.87 3.373 20 7.5 20s7.5-3.13 7.5-7.045c0-2.444-1.821-5.564-3.596-8.16C9.629 2.197 7.859.163 7.859.163 7.767.057 7.629-.004 7.485 0zM7.5 1.188c.439.516 1.672 1.977 3.127 4.105 1.741 2.546 3.435 5.686 3.435 7.663 0 3.41-2.921 6.136-6.562 6.136-3.64 0-6.563-2.726-6.563-6.136 0-1.977 1.695-5.117 3.435-7.663C5.827 3.164 7.061 1.703 7.5 1.187zm4.856 11.52c-.235.024-.41.232-.403.475 0 2.226-1.894 4.048-4.277 4.048-.25 0-.452.209-.452.466 0 .256.202.465.452.465 2.834 0 5.178-2.214 5.178-4.979.004-.134-.048-.264-.144-.355-.095-.091-.225-.135-.354-.12z"/>
</svg>
