<svg xmlns="http://www.w3.org/2000/svg" width="20" height="10" viewBox="0 0 20 10">
    <path fill="#5B4ED0" d="M2.685 0c-.235.023-.413.22-.412.455v1.136h-.91C.617 1.591 0 2.207 0 2.955v3.182C0 6.884.616 7.5 1.364 7.5h.909v1.136c0 .251.203.455.454.455H5c.251 0 .455-.204.455-.455V5h9.09v3.636c0 .251.204.455.455.455h2.273c.25 0 .454-.204.454-.455V7.5h.91C19.383 7.5 20 6.884 20 6.137V2.955c0-.748-.616-1.364-1.364-1.364h-.909V.455C17.728.22 17.55.023 17.315 0H15c-.251 0-.455.204-.455.455v3.636h-9.09V.455C5.455.204 5.25.001 5 0H2.685zm.497.91h1.363v3.494c-.031.094-.031.196 0 .29v3.488H3.182V.91zm12.273 0h1.363v7.272h-1.363V4.63c.006-.045.006-.09 0-.135V.91zM1.364 2.5h.909v4.091h-.91c-.259 0-.454-.195-.454-.454V2.955c0-.26.195-.455.455-.455zm16.363 0h.91c.259 0 .454.195.454.455v3.182c0 .26-.195.454-.455.454h-.909v-4.09z"/>
</svg>
