<svg xmlns="http://www.w3.org/2000/svg" width="35" height="35" viewBox="0 0 35 35">
    <g fill="none">
        <path fill="#FED22C" d="M17.5 0C7.85 0 0 7.85 0 17.5S7.85 35 17.5 35 35 27.15 35 17.5 27.15 0 17.5 0z"/>
        <path fill="#DD7F06" d="M23.975 24.357c-.325.234-.669.454-1.022.654-1.652.934-3.535 1.427-5.444 1.427-2.339 0-4.575-.72-6.468-2.082-.196-.141-.47-.097-.61.1-.141.196-.097.47.1.61 2.041 1.47 4.455 2.247 6.978 2.247 2.06 0 4.091-.532 5.875-1.54.381-.216.752-.453 1.102-.706.196-.141.24-.414.1-.61-.141-.196-.414-.24-.61-.1zM12.275 12.089c.242.045.467-.111.511-.349.045-.237-.111-.466-.348-.51-4.277-.809-6.255 2.347-6.274 2.378-.126.207-.06.476.145.602.071.043.15.064.228.064.147 0 .291-.074.374-.21.016-.026 1.678-2.667 5.364-1.975zM22.562 11.23c-.237.044-.393.273-.348.51.045.238.271.394.51.349 3.661-.689 5.298 1.867 5.366 1.976.083.135.226.209.373.209.078 0 .157-.02.228-.064.206-.126.271-.395.145-.602-.02-.032-1.997-3.184-6.274-2.379z"/>
    </g>
</svg>
