<svg xmlns="http://www.w3.org/2000/svg" width="35" height="35" viewBox="0 0 35 35">
    <g fill="none">
        <path fill="#FED22C" d="M17.5 0C7.85 0 0 7.85 0 17.5S7.85 35 17.5 35 35 27.15 35 17.5 27.15 0 17.5 0z"/>
        <path fill="#DD7F06" d="M25.23 22.823H9.77c-.24 0-.437.196-.437.438 0 .241.196.437.438.437h15.458c.242 0 .438-.196.438-.437 0-.242-.196-.438-.438-.438zM12.275 12.089c.24.044.467-.112.511-.349.045-.237-.111-.466-.349-.51-4.275-.81-6.254 2.346-6.273 2.378-.126.207-.061.476.145.602.071.043.15.064.228.064.147 0 .291-.074.373-.21.017-.026 1.677-2.667 5.365-1.975zM22.563 11.23c-.238.044-.394.273-.35.51.045.237.273.393.512.349 3.661-.687 5.294 1.862 5.365 1.976.083.135.226.209.373.209.078 0 .157-.02.228-.064.206-.126.271-.395.145-.602-.02-.031-2-3.185-6.273-2.379z"/>
    </g>
</svg>
