<svg xmlns="http://www.w3.org/2000/svg" width="35" height="35" viewBox="0 0 35 35">
    <g fill="none">
        <path fill="#FED22C" d="M17.5 0C7.85 0 0 7.85 0 17.5S7.85 35 17.5 35 35 27.15 35 17.5 27.15 0 17.5 0z"/>
        <path fill="#DD7F06" d="M17.508 19.921c-3.423 0-6.689 1.472-8.959 4.038-.131.148-.26.3-.384.456-.15.189-.12.464.069.615.08.065.177.096.272.096.13 0 .256-.056.343-.165.115-.144.233-.285.356-.423 2.103-2.378 5.13-3.742 8.303-3.742 3.385 0 6.541 1.518 8.659 4.166.15.188.426.219.615.068.188-.15.22-.426.068-.615-2.284-2.856-5.69-4.494-9.342-4.494zM8.529 11.715c.08.052 1.434.909 3.353.909.863 0 1.84-.173 2.868-.67.218-.106.309-.368.204-.585-.105-.217-.365-.31-.585-.203-2.86 1.383-5.265-.121-5.365-.186-.204-.13-.473-.073-.604.13-.132.202-.074.473.129.605zM26.607 11.289c-2.86 1.384-5.264-.121-5.365-.186-.204-.131-.473-.073-.604.13-.132.203-.074.474.129.605.08.052 1.434.91 3.353.91.863 0 1.84-.174 2.868-.672.218-.105.309-.366.204-.584-.105-.217-.366-.309-.585-.203z"/>
    </g>
</svg>
