<svg xmlns="http://www.w3.org/2000/svg" width="35" height="35" viewBox="0 0 35 35">
    <g fill="none">
        <path fill="#FED22C" d="M17.5 0C7.85 0 0 7.85 0 17.5S7.85 35 17.5 35 35 27.15 35 17.5 27.15 0 17.5 0z"/>
        <path fill="#DD7F06" d="M27.89 21.61c-.003-.027-.008-.053-.016-.08-.008-.027-.019-.052-.032-.077-.013-.024-.027-.046-.045-.068-.018-.023-.039-.042-.062-.061-.012-.01-.02-.024-.033-.033-1.75-1.151-5.755-1.895-10.202-1.895s-8.451.744-10.202 1.895c-.013.009-.02.022-.033.033-.023.019-.044.038-.062.061-.018.022-.032.044-.045.068-.013.025-.024.05-.032.078-.008.026-.013.052-.016.08-.003.028-.004.054-.001.083.002.029.008.057.017.085.004.015.003.031.009.046 1.752 4.194 5.82 6.904 10.365 6.904 4.544 0 8.613-2.71 10.365-6.904.006-.015.005-.03.01-.046.008-.028.014-.056.016-.085.003-.029.002-.055 0-.083zM12.275 12.089c.242.044.467-.112.511-.349.045-.237-.111-.466-.348-.51-4.276-.808-6.255 2.347-6.274 2.378-.126.207-.06.476.145.602.071.043.15.064.228.064.147 0 .291-.074.374-.21.016-.026 1.678-2.667 5.364-1.975zM22.562 11.23c-.237.044-.393.273-.348.51.044.237.27.393.51.349 3.662-.688 5.298 1.867 5.366 1.976.083.135.226.209.373.209.078 0 .157-.02.228-.064.206-.126.271-.395.145-.602-.02-.031-1.996-3.184-6.274-2.379z"/>
    </g>
</svg>
