<svg xmlns="http://www.w3.org/2000/svg" width="35" height="35" viewBox="0 0 35 35">
    <g fill="none">
        <path fill="#FED22C" d="M17.5 0C7.85 0 0 7.85 0 17.5S7.85 35 17.5 35 35 27.15 35 17.5 27.15 0 17.5 0z"/>
        <path fill="#DD7F06" d="M17.508 22.086c-2.06 0-4.092.532-5.874 1.54-.376.212-.748.45-1.104.706-.196.14-.24.414-.1.61.142.197.415.241.611.1.33-.237.674-.457 1.023-.654 1.651-.933 3.534-1.427 5.444-1.427 2.339 0 4.575.72 6.467 2.082.078.056.167.082.255.082.136 0 .27-.063.356-.182.14-.196.096-.47-.1-.61-2.041-1.47-4.455-2.247-6.978-2.247zM28.026 14.18c-2.372-.72-4.438-.596-5.749-.368 2.034-1.747 4.645-1.826 4.675-1.826.242-.005.434-.205.429-.446-.005-.239-.2-.429-.437-.429h-.008c-.164.003-4.033.109-6.336 3.227-.115.156-.114.37.004.525.117.154.323.214.505.144.029-.012 2.985-1.107 6.663.01.043.013.085.019.127.019.188 0 .362-.122.419-.311.07-.231-.06-.475-.292-.546zM13.9 15.007c.18.07.386.01.504-.144.117-.155.119-.369.004-.525-2.304-3.118-6.172-3.224-6.336-3.227h-.008c-.238 0-.433.19-.437.429-.005.241.187.44.428.446.03 0 2.642.079 4.675 1.826-1.31-.228-3.378-.353-5.749.367-.231.07-.362.315-.292.546.058.189.231.31.42.31.041 0 .084-.005.126-.018 3.68-1.117 6.635-.022 6.664-.01z"/>
    </g>
</svg>
