<svg xmlns="http://www.w3.org/2000/svg" width="33" height="35" viewBox="0 0 33 35">
    <g fill="none">
        <path fill="#8AD089" d="M4.93.709c3.72-1.083 6.508-.916 8.295.502 1.918 1.522 2.168 4.15 2.19 5.084-.76.518-2.987 1.813-5.315 1.082-1.241-.389-2.336-1.291-3.29-2.692-.005-.007-.008-.015-.012-.022-.021-.037-.046-.073-.073-.106C6.051 3.53 5.452 2.247 4.93.71z"/>
        <path fill="#FB8A8A" d="M31.739 22.143c-.012.036-.02.073-.027.111-.337 1.027-3.27 9.514-8.54 11.739-1.994.842-4.124.673-6.334-.512-.212-.114-.464-.114-.676 0-2.209 1.18-4.339 1.354-6.331.513-5.265-2.222-8.206-10.717-8.544-11.738-.007-.038-.016-.075-.027-.112-.55-1.676-.831-3.432-.834-5.2 0-4.704 1.919-8.457 5.555-10.897 1.065 1.4 2.296 2.321 3.693 2.762.61.19 1.243.287 1.88.285 1.515 0 2.854-.523 3.772-1.01-.006.967.076 1.933.245 2.884-2.229-.224-3.275-1.228-3.505-1.475-.175-.21-.447-.304-.71-.246-.262.058-.472.26-.547.523-.075.264-.002.55.19.742.438.476 2.118 1.998 5.496 1.998 3.378 0 5.054-1.522 5.496-1.998.192-.193.265-.478.19-.742-.075-.264-.285-.465-.548-.523-.262-.058-.534.037-.709.246-.239.26-1.384 1.356-3.86 1.505-.246-1.22-.331-2.469-.254-3.712.008-.13.019-.258.03-.385.017-.056.028-.115.032-.174 0-.018 0-.08.005-.18.128-1.147.414-2.269.85-3.333 4.038.206 7.624 1.43 10.204 3.5 3.036 2.436 4.641 5.974 4.641 10.229-.002 1.768-.284 3.524-.833 5.2z"/>
        <path fill="#9C3E3E" d="M12.788 19.468c-.403 0-.73.334-.73.747-.011.304-.255.545-.552.545-.297 0-.541-.24-.552-.545 0-.413-.327-.747-.73-.747-.403 0-.73.334-.73.747.02 1.123.915 2.022 2.012 2.022s1.991-.9 2.012-2.022c0-.413-.327-.747-.73-.747zM22.776 19.468c-.403 0-.73.334-.73.747-.011.304-.255.545-.552.545-.297 0-.54-.24-.552-.545 0-.413-.327-.747-.73-.747-.403 0-.73.334-.73.747.02 1.123.915 2.022 2.012 2.022s1.992-.9 2.012-2.022c0-.413-.327-.747-.73-.747zM19.313 23.847H13.69c-.403 0-.73.334-.73.747s.327.748.73.748h5.623c.403 0 .73-.335.73-.748s-.327-.747-.73-.747z"/>
    </g>
</svg>
