<svg xmlns="http://www.w3.org/2000/svg" width="20" height="20" viewBox="0 0 20 20">
    <g fill="#A4B0BA" stroke="#A4B0BA" stroke-width=".3">
        <path d="M.288 8.01c-.16.013-.283.13-.283.27-.074 2.117.643 3.874 2.123 5.215 1.21 1.062 2.757 1.787 4.444 2.08.172 0 .31-.12.31-.27 0-.148-.138-.269-.31-.269-.062 0-6.027-.937-5.996-6.5 1.257-.025 6.257.226 7.501 5.636v3.559c0 .148.14.269.31.269.172 0 .311-.12.311-.27v-3.585c.002-.017.002-.034 0-.052C7.246 7.514.359 8.005.288 8.01zM17.903 8.278c0-.14-.122-.257-.283-.27-.068 0-6.954-.495-8.45 6.077-.002.017-.002.034 0 .051v3.595c0 .148.139.269.31.269.171 0 .31-.12.31-.27v-3.556c1.242-5.406 6.248-5.654 7.501-5.632.032 5.508-5.825 6.461-5.992 6.496-.172.007-.304.133-.297.282.008.148.153.264.325.257 1.691-.292 3.243-1.015 4.456-2.079 1.48-1.34 2.197-3.096 2.12-5.22zM9.66 9.554c-.069.083-.082.193-.033.286.05.093.152.155.266.16.115.005.224-.048.282-.137C14.477 4.11 9.207.1 9.155.058 9.104.024 9.044.004 8.983 0h-.078c-.062.004-.122.024-.17.058-.053.04-5.323 4.051-1.022 9.805.1.118.284.146.42.064.138-.082.18-.246.095-.373-3.578-4.79-.161-8.17.717-8.908.875.738 4.302 4.109.714 8.908z" transform="translate(1 1)"/>
    </g>
</svg>
