<svg xmlns="http://www.w3.org/2000/svg" width="35" height="34" viewBox="0 0 35 34">
    <g fill="none" fill-rule="evenodd" transform="rotate(-180 17.5 17)">
        <path fill="#FED22C" fill-rule="nonzero" d="M33 20c.79-.736 1.997-2.136 1.997-3.239 0-2.167-1.761-3.928-3.928-3.928h-6.227c.407-1.414.87-3.485.87-5.595 0-2.974-1.353-5.607-3.445-6.707-1.496-.787-3.136-.695-4.506.247-.388.268-.62.709-.62 1.179v3.852c0 2.262-1.715 4.113-3.534 6.073-.587.634-1.175 1.278-1.725 1.944-.45-.989-1.443-1.681-2.597-1.681H2.857C1.28 12.145 0 13.426 0 15.002l1 16.141C1 32.72 1.281 34 2.857 34h5.428c1.344 0 2.415-.746 2.715-2 .863.457 2.92 1 4 1h12c.581 0 4 0 5-2 .632-1.265.056-2.877 0-3 .174-.158 0 0 1-1s.05-2.872 0-3c.382-.351 1-1 1-2s-.865-1.725-1-2z"/>
        <rect width="12" height="22" y="12" fill="#A9AAFB" rx="3"/>
    </g>
</svg>
