<svg xmlns="http://www.w3.org/2000/svg" width="18" height="18" viewBox="0 0 18 18">
    <g fill="#5B4ED0">
        <path d="M15.923 8.616V3.05c0-.82-.664-1.483-1.483-1.483h-1.632V.495c0-.274-.222-.495-.495-.495s-.494.221-.494.495v1.072H4.007V.495C4.007.22 3.787 0 3.513 0c-.273 0-.495.221-.495.495v1.072H1.484C.664 1.567 0 2.23 0 3.05v11.39c0 .819.664 1.483 1.484 1.483h7.132c1.256 1.522 3.266 2.2 5.187 1.75 1.92-.45 3.42-1.95 3.87-3.87.45-1.921-.228-3.931-1.75-5.187zm-14.44-6.06h1.535v1.07c0 .273.222.494.495.494s.494-.221.494-.494v-1.07h7.812v1.07c0 .273.221.494.494.494s.495-.221.495-.494v-1.07h1.632c.273 0 .494.221.494.494v2.39H.99V3.05c0-.273.221-.494.495-.494zm0 12.378c-.273 0-.494-.221-.494-.494V6.429h13.945v1.54c-1.999-1.003-4.415-.613-5.996.969-1.582 1.58-1.972 3.997-.969 5.996H1.484zm11.127 1.88c-2.322 0-4.203-1.883-4.203-4.204 0-2.322 1.881-4.203 4.203-4.203 2.321 0 4.203 1.881 4.203 4.203-.002 2.32-1.883 4.201-4.203 4.203z"/>
        <path d="M12.175 14.368l-1.361-1.218c-.13-.13-.32-.176-.495-.123-.175.054-.306.2-.34.38-.034.18.033.364.176.479l1.78 1.582c.107.106.255.159.405.142.149-.017.282-.1.363-.227l2.553-4.035c.106-.15.12-.344.038-.507-.082-.164-.247-.268-.43-.272-.182-.005-.352.092-.442.25l-2.247 3.55z"/>
    </g>
</svg>
