<svg xmlns="http://www.w3.org/2000/svg" width="20" height="17" viewBox="0 0 20 17">
    <g fill="#A4B0BA" stroke="#A4B0BA" stroke-width=".5">
        <path d="M17.77 14.456H.461V.272C.462.11.369 0 .23 0 .092 0 0 .109 0 .272v14.456c0 .163.092.272.23.272h17.54c.138 0 .23-.109.23-.272 0-.164-.092-.272-.23-.272z" transform="translate(1 1)"/>
        <path d="M3.213 11c.064 0 .107-.022.15-.066l3.899-4.017 2.472 2.546c.042.044.085.066.149.066.064 0 .106-.022.149-.066l4.837-4.983 1.172 1.208L17 2l-3.58.988 1.172 1.207-4.688 4.83-2.493-2.569c-.043-.044-.085-.066-.15-.066-.063 0-.106.022-.148.066l-4.05 4.17c-.084.089-.084.22 0 .308.044.044.086.066.15.066z" transform="translate(1 1)"/>
    </g>
</svg>
