<svg xmlns="http://www.w3.org/2000/svg" width="31" height="32" viewBox="0 0 31 32">
    <g fill="none">
        <path fill="#A9AAFB" d="M22.746 27.356c-2.924-2.078-5.14-6.101-7.284-9.993-.917-1.664-1.865-3.384-2.86-4.934C8.637 6.247.354 7.013 0 7.047V32h8.605V10.951c.917.627 1.764 1.432 2.44 2.486.961 1.497 1.894 3.19 2.796 4.828 2.245 4.074 4.566 8.287 7.834 10.61C26.02 31.965 30.798 32 30.999 32L31 30.14c-.043 0-4.405-.047-8.254-2.784z"/>
        <path fill="#FEBF23" d="M12.332 9C12.79 7.6 13.63 6.25 14 5.693l-.411-1.516c-.298-.111-.62-.177-.957-.177C11.178 4 10 5.126 10 6.514 10 7.805 11.021 8.856 12.332 9z"/>
        <path fill="#FEBF23" d="M14.994 5.858S12.25 9.812 13.2 11.559l2.828 4.85c.386.663 4.887 2.756 4.887 2.756l3.27 4.323c.254.334.648.512 1.047.512.263 0 .53-.078.76-.238.577-.404.705-1.183.285-1.738l-3.388-4.479c-.079-.103-.173-.194-.28-.27l-1.64-1.16h2.604l4.356 3.156c.233.169.507.25.777.25.392 0 .78-.17 1.034-.495.43-.549.316-1.33-.255-1.743l-4.702-3.407c-.224-.163-.498-.25-.778-.25h-3.25L18.03 8.953c-.02-.036-.048-.064-.072-.098l1.379-1.998c.14-.202.199-.446.168-.687L18.832.893c-.071-.558-.592-.953-1.179-.886-.58.069-.992.576-.92 1.134l.624 4.903-.315.457.078-.58c.017-.13.008-.26-.025-.386l-1.086-4.023c-.146-.544-.723-.87-1.29-.729-.566.142-.905.697-.758 1.241l1.033 3.834z"/>
    </g>
</svg>
