<svg xmlns="http://www.w3.org/2000/svg" width="35" height="35" viewBox="0 0 35 35">
    <g fill="none">
        <path fill="#A9AAFB" d="M4.991 32.238l6.903-4.027c.211-.123.45-.189.696-.189h8.74l11.453-7.016c.652-.399 1.503-.194 1.9.457.399.65.194 1.501-.456 1.9l-5.814 3.562 2.544 6.109c.22.528-.029 1.135-.557 1.355-.13.054-.266.08-.398.08-.406 0-.791-.24-.957-.638l-2.42-5.81-4.184 2.563c-.216.132-.467.203-.721.203h-8.756l-6.58 3.84c-.218.126-.459.187-.695.187-.476 0-.939-.246-1.195-.686-.384-.66-.162-1.505.497-1.89z"/>
        <circle cx="30.402" cy="17.992" r="2.872" fill="#FEBF23"/>
        <path fill="#FEBF23" d="M26.653 23.849l-4.517 2.788c-.397.246-1.949 1.127-4.298.579l-5.89-1.376-4.526 3.966c-.237.203-.524.31-.813.319-.382.014-.769-.14-1.04-.452-.474-.548-.414-1.377.134-1.852l5.032-4.404c.319-.275.748-.38 1.16-.284l5.954.902-3.579-2.073-.634.923-1.6-.373c-.169-.04-.34-.056-.511-.05-.196.007-.387.05-.57.113l1.927-2.807c.333-.485.97-.656 1.503-.4l4.869 2.349s2.907-1.77 4.261-2.625c1.465-.927 3.873.166 4.465 1.719.712 1.86-.579 2.577-1.327 3.038z"/>
        <circle cx="7.305" cy="7.379" r="3.148" fill="#FCC541"/>
        <path fill="#FCC541" d="M7.305 3.301c-.22 0-.398-.178-.398-.398V.583c0-.219.179-.397.398-.397.22 0 .397.178.397.398v2.32c0 .22-.177.397-.397.397zM10.75 4.495c-.077.078-.18.116-.281.116-.103 0-.204-.039-.282-.116-.155-.155-.155-.407 0-.562l1.641-1.64c.156-.156.408-.156.563 0 .155.155.155.407 0 .562l-1.64 1.64zM14.1 7.776h-2.32c-.22 0-.399-.179-.399-.398 0-.22.18-.398.398-.398H14.1c.219 0 .398.18.398.399 0 .22-.179.397-.398.397zM10.75 10.26l1.642 1.642c.155.155.155.407 0 .562-.078.078-.181.116-.282.116-.103 0-.204-.039-.282-.116l-1.64-1.641c-.156-.155-.156-.407 0-.562.154-.156.407-.156.563 0zM7.305 11.455c.22 0 .397.179.397.397v2.321c0 .22-.179.398-.397.398-.22 0-.398-.179-.398-.398v-2.32c0-.22.178-.398.398-.398zM3.86 10.26c.155-.155.408-.155.563 0 .155.156.155.408 0 .563L2.78 12.464c-.078.078-.18.116-.282.116-.1 0-.203-.039-.281-.116-.155-.155-.155-.407 0-.562L3.86 10.26zM.51 6.98h2.32c.22 0 .398.18.398.398 0 .22-.178.398-.398.398H.51c-.22 0-.397-.18-.397-.398 0-.22.177-.398.398-.398zM4.141 4.612c-.102 0-.204-.039-.281-.116L2.22 2.855c-.156-.155-.156-.407 0-.563.154-.155.407-.155.562 0l1.64 1.64c.156.156.156.408 0 .563-.077.078-.18.117-.28.117z"/>
    </g>
</svg>
