<svg xmlns="http://www.w3.org/2000/svg" width="31" height="32" viewBox="0 0 31 32">
    <g fill="none">
        <path fill="#A9AAFB" d="M22.556 26.897c-2.898-2.017-5.096-5.92-7.221-9.696-.909-1.615-1.849-3.284-2.835-4.787C8.568 6.416.357 7.16.007 7.192v24.21h8.53V10.98c.91.608 1.75 1.389 2.42 2.412.952 1.453 1.877 3.094 2.77 4.684 2.227 3.953 4.527 8.04 7.767 10.295 4.308 2.997 9.044 3.032 9.244 3.032v-1.805c-.042 0-4.367-.046-8.182-2.701z"/>
        <path fill="#FEBF23" d="M13.136 9.425c.44-1.379 1.244-2.71 1.599-3.26l-.394-1.493c-.285-.11-.593-.175-.917-.175-1.393 0-2.522 1.11-2.522 2.478 0 1.272.979 2.309 2.234 2.45z"/>
        <path fill="#FEBF23" d="M15.383 6.269s-2.697 3.97-1.762 5.724l2.778 4.868c.38.665 4.8 2.767 4.8 2.767l3.214 4.34c.248.335.636.514 1.028.514.258 0 .52-.078.746-.24.567-.405.693-1.186.28-1.744l-3.328-4.496c-.077-.104-.17-.195-.275-.271l-1.611-1.166h2.558l4.28 3.17c.228.169.497.25.763.25.385 0 .766-.171 1.015-.497.422-.55.31-1.334-.25-1.749l-4.62-3.42c-.22-.164-.488-.252-.764-.252h-3.193l-2.677-4.691c-.02-.036-.047-.064-.07-.098l1.354-2.006c.137-.203.196-.448.166-.69l-.662-5.297c-.07-.56-.582-.956-1.158-.89-.57.07-.974.58-.904 1.14l.613 4.92-.31.46.077-.583c.017-.13.009-.26-.025-.387L16.38 1.907c-.144-.547-.71-.875-1.267-.732-.556.142-.89.7-.745 1.246l1.015 3.848z"/>
    </g>
</svg>
