<svg xmlns="http://www.w3.org/2000/svg" width="26" height="35" viewBox="0 0 26 35">
    <g fill="none">
        <ellipse cx="13.21" cy="4.209" fill="#FEBF23" rx="3.352" ry="3.325"/>
        <path fill="#FEBF23" d="M5.696 8.266c.093.147.213.276.353.38 0 0 2.73 2.385 2.73 2.563l.095 2.279c.937-.11 1.982-.273 3.074-.444 1.792-.281 3.753-.575 5.781-.745l-.088-1.321c0-.231 2.491-2.332 2.491-2.332.141-.104.261-.233.354-.38l3.674-5.85c.406-.648.207-1.499-.446-1.902-.652-.403-1.512-.206-1.918.441L18.262 6.58s-2.912 1.865-5.17 1.865-5.17-1.865-5.17-1.865L4.388.955C3.982.308 3.123.11 2.47.514c-.653.404-.852 1.254-.445 1.902l3.67 5.85zM18.164 18.884l-.05-.734c-2.049.16-4.05.466-5.877.752-1.103.173-2.155.334-3.121.45l-.472 5.088-2.75-1.86c-.848-.574-2.002-.356-2.58.485-.578.84-.36 1.986.489 2.559l5.112 3.457c.313.211.678.32 1.046.32.243 0 .486-.047.717-.142.58-.241.998-.756 1.11-1.37l1.839-6.55 2.188 4.99v6.524c0 1.017.832 1.842 1.858 1.842 1.025 0 1.857-.825 1.857-1.842v-6.908c0-.252-.053-.503-.154-.735l-1.212-6.326z"/>
        <path fill="#A9AAFB" d="M7.885 14.51C3.59 14.816.49 12.59.49 12.59v4.04s3.1 2.226 7.395 1.918c4.294-.307 11.377-2.35 17.624-.944v-4.039c-6.247-1.406-13.33.638-17.625.944z"/>
    </g>
</svg>
