<svg xmlns="http://www.w3.org/2000/svg" width="23" height="35" viewBox="0 0 23 35">
    <path fill="#8ADBFF" d="M0 0l2.875 32.908C3.045 34.048 4.228 35 5.496 35h12.008c1.31 0 2.494-.951 2.621-2.13L23 0H0zm22.112.76l-.254 2.702c-.38 0-.591-.19-.845-.38-.254-.229-.592-.495-1.184-.495s-.93.266-1.184.495c-.253.19-.465.38-.888.38-.422 0-.634-.19-.888-.38-.253-.229-.591-.495-1.183-.495-.592 0-.93.266-1.184.495-.254.19-.465.38-.888.38s-.634-.19-.888-.38c-.254-.229-.592-.495-1.184-.495s-.93.266-1.184.495c-.253.19-.465.38-.887.38-.423 0-.635-.19-.888-.38-.254-.229-.592-.495-1.184-.495s-.93.266-1.184.495c-.254.19-.465.38-.888.38s-.634-.19-.888-.38c-.253-.229-.592-.495-1.183-.495-.592 0-.93.266-1.184.495-.254.19-.423.342-.846.38L.888.761h21.224z"/>
</svg>
