<svg xmlns="http://www.w3.org/2000/svg" width="23" height="35" viewBox="0 0 23 35">
    <path fill="#8ADBFF" d="M0 0l2.875 32.908C3.045 34.048 4.228 35 5.496 35h12.008c1.31 0 2.494-.951 2.621-2.13L23 0H0zm21.013 6.772c-.254-.229-.592-.495-1.184-.495s-.93.266-1.184.495c-.253.19-.465.38-.888.38-.422 0-.634-.19-.888-.38-.253-.229-.591-.495-1.183-.495-.592 0-.93.266-1.184.495-.254.19-.465.38-.888.38s-.634-.19-.888-.38c-.254-.229-.592-.495-1.184-.495s-.93.266-1.184.495c-.253.19-.465.38-.887.38-.423 0-.635-.19-.888-.38-.254-.229-.592-.495-1.184-.495s-.93.266-1.184.495c-.254.19-.465.38-.888.38s-.634-.19-.888-.38c-.253-.229-.592-.495-1.183-.495-.592 0-.93.266-1.184.495-.17.114-.296.266-.508.304l-.296-3.234c.55-.038.846-.266 1.1-.494.253-.19.465-.38.888-.38.422 0 .634.19.887.38.254.228.592.494 1.184.494s.93-.266 1.184-.494c.254-.19.465-.38.888-.38s.634.19.888.38c.253.228.592.494 1.184.494.591 0 .93-.266 1.183-.494.254-.19.465-.38.888-.38s.634.19.888.38c.254.228.592.494 1.184.494s.93-.266 1.184-.494c.253-.19.465-.38.888-.38.422 0 .634.19.888.38.253.228.591.494 1.183.494.592 0 .93-.266 1.184-.494.254-.19.465-.38.888-.38s.634.19.888.38c.254.228.55.456 1.1.494l-.297 3.234c-.169-.076-.338-.19-.507-.304zm1.1-6.011l-.255 2.701c-.38 0-.591-.19-.845-.38-.254-.229-.592-.495-1.184-.495s-.93.266-1.184.495c-.253.19-.465.38-.888.38-.422 0-.634-.19-.888-.38-.253-.229-.591-.495-1.183-.495-.592 0-.93.266-1.184.495-.254.19-.465.38-.888.38s-.634-.19-.888-.38c-.254-.229-.592-.495-1.184-.495s-.93.266-1.184.495c-.253.19-.465.38-.887.38-.423 0-.635-.19-.888-.38-.254-.229-.592-.495-1.184-.495s-.93.266-1.184.495c-.254.19-.465.38-.888.38s-.634-.19-.888-.38c-.253-.229-.592-.495-1.183-.495-.592 0-.93.266-1.184.495-.254.19-.423.342-.846.38L.888.761h21.224z"/>
</svg>
