<svg xmlns="http://www.w3.org/2000/svg" width="23" height="35" viewBox="0 0 23 35">
    <path fill="#ADEAFD" d="M0 0l2.875 32.908C3.045 34.048 4.228 35 5.496 35h12.008c1.31 0 2.494-.951 2.621-2.13L23 0H0zm19.702 28.38c-.507.038-.803.267-1.057.457-.253.19-.465.38-.888.38-.422 0-.634-.19-.888-.38-.253-.228-.591-.495-1.183-.495-.592 0-.93.267-1.184.495-.254.19-.465.38-.888.38s-.634-.19-.888-.38c-.254-.228-.592-.495-1.184-.495s-.93.267-1.184.495c-.253.19-.465.38-.887.38-.423 0-.635-.19-.888-.38-.254-.228-.592-.495-1.184-.495s-.93.267-1.184.495c-.254.19-.465.38-.888.38s-.634-.19-.888-.38c-.253-.19-.507-.419-1.014-.457l-.38-3.271h.126c.423 0 .634.19.888.38.253.228.592.495 1.184.495s.93-.267 1.183-.495c.254-.19.466-.38.888-.38.423 0 .635.19.888.38.254.228.592.495 1.184.495s.93-.267 1.184-.495c.254-.19.465-.38.888-.38s.634.19.888.38c.253.228.591.495 1.183.495.592 0 .93-.267 1.184-.495.254-.19.465-.38.888-.38s.634.19.888.38c.254.228.592.495 1.184.495s.93-.267 1.184-.495c.253-.19.465-.38.887-.38h.127l-.169 3.271zm.127-3.69c-.592 0-.93.267-1.184.495-.253.19-.465.38-.888.38-.422 0-.634-.19-.888-.38-.253-.228-.591-.495-1.183-.495-.592 0-.93.267-1.184.495-.254.19-.465.38-.888.38s-.634-.19-.888-.38c-.254-.228-.592-.495-1.184-.495s-.93.267-1.184.495c-.253.19-.465.38-.887.38-.423 0-.635-.19-.888-.38-.254-.228-.592-.495-1.184-.495s-.93.267-1.184.495c-.254.19-.465.38-.888.38s-.634-.19-.888-.38c-.253-.228-.592-.495-1.183-.495h-.17l-.296-3.31c.127-.038.254-.076.466-.076.422 0 .634.19.887.38.254.229.592.495 1.184.495s.93-.266 1.184-.494c.254-.19.465-.38.888-.38s.634.19.888.38c.253.228.592.494 1.184.494.591 0 .93-.266 1.183-.494.254-.19.465-.38.888-.38s.634.19.888.38c.254.228.592.494 1.184.494s.93-.266 1.184-.494c.253-.19.465-.38.888-.38.422 0 .634.19.888.38.253.228.591.494 1.183.494.592 0 .93-.266 1.184-.494.254-.19.465-.38.888-.38.17 0 .338.037.465.075l-.296 3.348c-.042 0-.084-.038-.169-.038zm0-3.728c-.592 0-.93.266-1.184.495-.253.19-.465.38-.888.38-.422 0-.634-.19-.888-.38-.253-.229-.591-.495-1.183-.495-.592 0-.93.266-1.184.495-.254.19-.465.38-.888.38s-.634-.19-.888-.38c-.254-.229-.592-.495-1.184-.495s-.93.266-1.184.495c-.253.19-.465.38-.887.38-.423 0-.635-.19-.888-.38-.254-.229-.592-.495-1.184-.495s-.93.266-1.184.495c-.254.19-.465.38-.888.38s-.634-.19-.888-.38c-.253-.229-.592-.495-1.183-.495-.212 0-.339.038-.508.076l-.254-3.081c.212-.153.423-.267.762-.267.422 0 .634.19.887.38.254.229.592.495 1.184.495s.93-.266 1.184-.494c.254-.19.465-.38.888-.38s.634.19.888.38c.253.228.592.494 1.184.494.591 0 .93-.266 1.183-.494.254-.19.465-.38.888-.38s.634.19.888.38c.254.228.592.494 1.184.494s.93-.266 1.184-.494c.253-.19.465-.38.888-.38.422 0 .634.19.888.38.253.228.591.494 1.183.494.592 0 .93-.266 1.184-.494.254-.19.465-.38.888-.38.338 0 .55.113.761.266l-.254 3.081c-.169-.038-.296-.076-.507-.076zm.803-3.462c-.211-.114-.465-.19-.803-.19-.592 0-.93.266-1.184.494-.253.19-.465.38-.888.38-.422 0-.634-.19-.888-.38-.253-.228-.591-.494-1.183-.494-.592 0-.93.266-1.184.494-.254.19-.465.38-.888.38s-.634-.19-.888-.38c-.254-.228-.592-.494-1.184-.494s-.93.266-1.184.494c-.253.19-.465.38-.887.38-.423 0-.635-.19-.888-.38-.254-.228-.592-.494-1.184-.494s-.93.266-1.184.494c-.254.19-.465.38-.888.38s-.634-.19-.888-.38c-.253-.228-.592-.494-1.183-.494-.339 0-.592.076-.804.19L2.2 14.533l.126-.115c.254-.19.465-.38.888-.38s.634.19.888.38c.254.229.592.495 1.184.495s.93-.266 1.184-.495c.253-.19.465-.38.888-.38.422 0 .634.19.887.38.254.229.592.495 1.184.495s.93-.266 1.184-.495c.254-.19.465-.38.888-.38s.634.19.888.38c.254.229.592.495 1.184.495s.93-.266 1.184-.495c.253-.19.465-.38.887-.38.423 0 .635.19.888.38.254.229.592.495 1.184.495s.93-.266 1.184-.495c.254-.19.465-.38.888-.38s.676.19.93.38c.042.039.084.077.169.115l-.254 2.967zm.296-3.462c-.253-.19-.55-.418-1.099-.418-.592 0-.93.266-1.184.494-.253.19-.465.38-.888.38-.422 0-.634-.19-.888-.38-.253-.228-.591-.494-1.183-.494-.592 0-.93.266-1.184.494-.254.19-.465.38-.888.38s-.634-.19-.888-.38c-.254-.228-.592-.494-1.184-.494s-.93.266-1.184.494c-.253.19-.465.38-.887.38-.423 0-.635-.19-.888-.38-.254-.228-.592-.494-1.184-.494s-.93.266-1.184.494c-.254.19-.465.38-.888.38s-.634-.19-.888-.38c-.253-.228-.592-.494-1.183-.494-.55 0-.846.19-1.1.418l-.253-3.005c.169-.076.338-.19.465-.305.253-.19.465-.38.888-.38.422 0 .634.19.887.38.254.229.592.495 1.184.495s.93-.266 1.184-.495c.254-.19.465-.38.888-.38s.634.19.888.38c.253.229.592.495 1.184.495.591 0 .93-.266 1.183-.495.254-.19.465-.38.888-.38s.634.19.888.38c.254.229.592.495 1.184.495s.93-.266 1.184-.495c.253-.19.465-.38.888-.38.422 0 .634.19.888.38.253.229.591.495 1.183.495.592 0 .93-.266 1.184-.495.254-.19.465-.38.888-.38s.677.19.888.38c.127.114.296.229.465.305l-.254 3.005zm.085-3.576c-.254-.228-.592-.495-1.184-.495s-.93.267-1.184.495c-.253.19-.465.38-.888.38-.422 0-.634-.19-.888-.38-.253-.228-.591-.495-1.183-.495-.592 0-.93.267-1.184.495-.254.19-.465.38-.888.38s-.634-.19-.888-.38c-.254-.228-.592-.495-1.184-.495s-.93.267-1.184.495c-.253.19-.465.38-.887.38-.423 0-.635-.19-.888-.38-.254-.228-.592-.495-1.184-.495s-.93.267-1.184.495c-.254.19-.465.38-.888.38s-.634-.19-.888-.38c-.253-.228-.592-.495-1.183-.495-.592 0-.93.267-1.184.495-.085.076-.127.114-.212.152l-.296-3.157c.339-.077.55-.267.761-.419.254-.19.465-.38.888-.38s.634.19.888.38c.254.228.592.495 1.184.495s.93-.267 1.184-.495c.253-.19.465-.38.888-.38.422 0 .634.19.887.38.254.228.592.495 1.184.495s.93-.267 1.184-.495c.254-.19.465-.38.888-.38s.634.19.888.38c.254.228.592.495 1.184.495s.93-.267 1.184-.495c.253-.19.465-.38.887-.38.423 0 .635.19.888.38.254.228.592.495 1.184.495s.93-.267 1.184-.495c.254-.19.465-.38.888-.38s.634.19.888.38c.211.152.422.342.76.419l-.21 3.157c-.043-.038-.128-.076-.212-.152zm0-3.69c-.254-.229-.592-.495-1.184-.495s-.93.266-1.184.495c-.253.19-.465.38-.888.38-.422 0-.634-.19-.888-.38-.253-.229-.591-.495-1.183-.495-.592 0-.93.266-1.184.495-.254.19-.465.38-.888.38s-.634-.19-.888-.38c-.254-.229-.592-.495-1.184-.495s-.93.266-1.184.495c-.253.19-.465.38-.887.38-.423 0-.635-.19-.888-.38-.254-.229-.592-.495-1.184-.495s-.93.266-1.184.495c-.254.19-.465.38-.888.38s-.634-.19-.888-.38c-.253-.229-.592-.495-1.183-.495-.592 0-.93.266-1.184.495-.17.114-.296.266-.508.304l-.296-3.234c.55-.038.846-.266 1.1-.494.253-.19.465-.38.888-.38.422 0 .634.19.887.38.254.228.592.494 1.184.494s.93-.266 1.184-.494c.254-.19.465-.38.888-.38s.634.19.888.38c.253.228.592.494 1.184.494.591 0 .93-.266 1.183-.494.254-.19.465-.38.888-.38s.634.19.888.38c.254.228.592.494 1.184.494s.93-.266 1.184-.494c.253-.19.465-.38.888-.38.422 0 .634.19.888.38.253.228.591.494 1.183.494.592 0 .93-.266 1.184-.494.254-.19.465-.38.888-.38s.634.19.888.38c.254.228.55.456 1.1.494l-.297 3.234c-.169-.076-.338-.19-.507-.304zm1.1-6.011l-.255 2.701c-.38 0-.591-.19-.845-.38-.254-.229-.592-.495-1.184-.495s-.93.266-1.184.495c-.253.19-.465.38-.888.38-.422 0-.634-.19-.888-.38-.253-.229-.591-.495-1.183-.495-.592 0-.93.266-1.184.495-.254.19-.465.38-.888.38s-.634-.19-.888-.38c-.254-.229-.592-.495-1.184-.495s-.93.266-1.184.495c-.253.19-.465.38-.887.38-.423 0-.635-.19-.888-.38-.254-.229-.592-.495-1.184-.495s-.93.266-1.184.495c-.254.19-.465.38-.888.38s-.634-.19-.888-.38c-.253-.229-.592-.495-1.183-.495-.592 0-.93.266-1.184.495-.254.19-.423.342-.846.38L.888.761h21.224zm-2.834 32.032c-.126.761-.93 1.446-1.818 1.446H5.496c-.888 0-1.69-.647-1.818-1.407L3.34 28.76c.296.038.507.19.719.38.253.229.592.495 1.184.495s.93-.266 1.183-.495c.254-.19.466-.38.888-.38.423 0 .635.19.888.38.254.229.592.495 1.184.495s.93-.266 1.184-.495c.254-.19.465-.38.888-.38s.634.19.888.38c.253.229.591.495 1.183.495.592 0 .93-.266 1.184-.495.254-.19.465-.38.888-.38s.634.19.888.38c.254.229.592.495 1.184.495s.93-.266 1.184-.495c.211-.19.422-.304.718-.38l-.296 4.032z"/>
</svg>
