<svg xmlns="http://www.w3.org/2000/svg" width="23" height="35" viewBox="0 0 23 35">
    <path fill="#8ADBFF" d="M0 0l2.875 32.908C3.045 34.048 4.228 35 5.496 35h12.008c1.31 0 2.494-.951 2.621-2.13L23 0H0zm20.632 17.5c-.211-.114-.465-.19-.803-.19-.592 0-.93.266-1.184.494-.253.19-.465.38-.888.38-.422 0-.634-.19-.888-.38-.253-.228-.591-.494-1.183-.494-.592 0-.93.266-1.184.494-.254.19-.465.38-.888.38s-.634-.19-.888-.38c-.254-.228-.592-.494-1.184-.494s-.93.266-1.184.494c-.253.19-.465.38-.887.38-.423 0-.635-.19-.888-.38-.254-.228-.592-.494-1.184-.494s-.93.266-1.184.494c-.254.19-.465.38-.888.38s-.634-.19-.888-.38c-.253-.228-.592-.494-1.183-.494-.339 0-.592.076-.804.19L2.2 14.533l.126-.115c.254-.19.465-.38.888-.38s.634.19.888.38c.254.229.592.495 1.184.495s.93-.266 1.184-.495c.253-.19.465-.38.888-.38.422 0 .634.19.887.38.254.229.592.495 1.184.495s.93-.266 1.184-.495c.254-.19.465-.38.888-.38s.634.19.888.38c.254.229.592.495 1.184.495s.93-.266 1.184-.495c.253-.19.465-.38.887-.38.423 0 .635.19.888.38.254.229.592.495 1.184.495s.93-.266 1.184-.495c.254-.19.465-.38.888-.38s.676.19.93.38c.042.039.084.077.169.115l-.254 2.967zm.296-3.462c-.253-.19-.55-.418-1.099-.418-.592 0-.93.266-1.184.494-.253.19-.465.38-.888.38-.422 0-.634-.19-.888-.38-.253-.228-.591-.494-1.183-.494-.592 0-.93.266-1.184.494-.254.19-.465.38-.888.38s-.634-.19-.888-.38c-.254-.228-.592-.494-1.184-.494s-.93.266-1.184.494c-.253.19-.465.38-.887.38-.423 0-.635-.19-.888-.38-.254-.228-.592-.494-1.184-.494s-.93.266-1.184.494c-.254.19-.465.38-.888.38s-.634-.19-.888-.38c-.253-.228-.592-.494-1.183-.494-.55 0-.846.19-1.1.418l-.253-3.005c.169-.076.338-.19.465-.305.253-.19.465-.38.888-.38.422 0 .634.19.887.38.254.229.592.495 1.184.495s.93-.266 1.184-.495c.254-.19.465-.38.888-.38s.634.19.888.38c.253.229.592.495 1.184.495.591 0 .93-.266 1.183-.495.254-.19.465-.38.888-.38s.634.19.888.38c.254.229.592.495 1.184.495s.93-.266 1.184-.495c.253-.19.465-.38.888-.38.422 0 .634.19.888.38.253.229.591.495 1.183.495.592 0 .93-.266 1.184-.495.254-.19.465-.38.888-.38s.677.19.888.38c.127.114.296.229.465.305l-.254 3.005zm.085-3.576c-.254-.228-.592-.495-1.184-.495s-.93.267-1.184.495c-.253.19-.465.38-.888.38-.422 0-.634-.19-.888-.38-.253-.228-.591-.495-1.183-.495-.592 0-.93.267-1.184.495-.254.19-.465.38-.888.38s-.634-.19-.888-.38c-.254-.228-.592-.495-1.184-.495s-.93.267-1.184.495c-.253.19-.465.38-.887.38-.423 0-.635-.19-.888-.38-.254-.228-.592-.495-1.184-.495s-.93.267-1.184.495c-.254.19-.465.38-.888.38s-.634-.19-.888-.38c-.253-.228-.592-.495-1.183-.495-.592 0-.93.267-1.184.495-.085.076-.127.114-.212.152l-.296-3.157c.339-.077.55-.267.761-.419.254-.19.465-.38.888-.38s.634.19.888.38c.254.228.592.495 1.184.495s.93-.267 1.184-.495c.253-.19.465-.38.888-.38.422 0 .634.19.887.38.254.228.592.495 1.184.495s.93-.267 1.184-.495c.254-.19.465-.38.888-.38s.634.19.888.38c.254.228.592.495 1.184.495s.93-.267 1.184-.495c.253-.19.465-.38.887-.38.423 0 .635.19.888.38.254.228.592.495 1.184.495s.93-.267 1.184-.495c.254-.19.465-.38.888-.38s.634.19.888.38c.211.152.422.342.76.419l-.21 3.157c-.043-.038-.128-.076-.212-.152zm0-3.69c-.254-.229-.592-.495-1.184-.495s-.93.266-1.184.495c-.253.19-.465.38-.888.38-.422 0-.634-.19-.888-.38-.253-.229-.591-.495-1.183-.495-.592 0-.93.266-1.184.495-.254.19-.465.38-.888.38s-.634-.19-.888-.38c-.254-.229-.592-.495-1.184-.495s-.93.266-1.184.495c-.253.19-.465.38-.887.38-.423 0-.635-.19-.888-.38-.254-.229-.592-.495-1.184-.495s-.93.266-1.184.495c-.254.19-.465.38-.888.38s-.634-.19-.888-.38c-.253-.229-.592-.495-1.183-.495-.592 0-.93.266-1.184.495-.17.114-.296.266-.508.304l-.296-3.234c.55-.038.846-.266 1.1-.494.253-.19.465-.38.888-.38.422 0 .634.19.887.38.254.228.592.494 1.184.494s.93-.266 1.184-.494c.254-.19.465-.38.888-.38s.634.19.888.38c.253.228.592.494 1.184.494.591 0 .93-.266 1.183-.494.254-.19.465-.38.888-.38s.634.19.888.38c.254.228.592.494 1.184.494s.93-.266 1.184-.494c.253-.19.465-.38.888-.38.422 0 .634.19.888.38.253.228.591.494 1.183.494.592 0 .93-.266 1.184-.494.254-.19.465-.38.888-.38s.634.19.888.38c.254.228.55.456 1.1.494l-.297 3.234c-.169-.076-.338-.19-.507-.304zm1.1-6.011l-.255 2.701c-.38 0-.591-.19-.845-.38-.254-.229-.592-.495-1.184-.495s-.93.266-1.184.495c-.253.19-.465.38-.888.38-.422 0-.634-.19-.888-.38-.253-.229-.591-.495-1.183-.495-.592 0-.93.266-1.184.495-.254.19-.465.38-.888.38s-.634-.19-.888-.38c-.254-.229-.592-.495-1.184-.495s-.93.266-1.184.495c-.253.19-.465.38-.887.38-.423 0-.635-.19-.888-.38-.254-.229-.592-.495-1.184-.495s-.93.266-1.184.495c-.254.19-.465.38-.888.38s-.634-.19-.888-.38c-.253-.229-.592-.495-1.183-.495-.592 0-.93.266-1.184.495-.254.19-.423.342-.846.38L.888.761h21.224z"/>
</svg>
