<svg xmlns="http://www.w3.org/2000/svg" width="35" height="36" viewBox="0 0 35 36">
    <g fill="none" fill-rule="evenodd">
        <path fill="#A8A9FB" fill-rule="nonzero" d="M17.5 6.656c6.903 0 12.52 5.616 12.52 12.52 0 6.902-5.617 12.518-12.52 12.518S4.98 26.078 4.98 19.175c0-6.903 5.617-12.519 12.52-12.519m0-2.42c-8.25 0-14.939 6.689-14.939 14.94 0 8.25 6.688 14.938 14.939 14.938 8.25 0 14.939-6.688 14.939-14.939 0-8.25-6.688-14.939-14.939-14.939z"/>
        <path stroke="#A8A9FB" stroke-linecap="round" stroke-width="2" d="M27.103 30.619L30.305 34.114M7.897 30.619L4.695 34.114"/>
        <path fill="#A8A9FB" fill-rule="nonzero" d="M24.848 1.87l.764-.91c.026-.008.081-.02.18-.02.85 0 2.729.808 4.843 2.582 2.61 2.19 3.475 4.075 3.398 4.5l-.766.912-8.419-7.065zM.968 8.021c-.078-.424.787-2.309 3.397-4.5C6.48 1.749 8.357.94 9.207.94c.1 0 .156.012.18.02l.765.91-8.42 7.065-.764-.913z"/>
        <path fill="#D3F6F9" d="M18 19v-8c2 0 3.333.333 4 1 .667.667 1.333 1.667 2 3l-6 4z"/>
        <path stroke="#A8A9FB" stroke-linecap="round" stroke-width="2" d="M17.5 19.175L17.5 10.175M17.662 19.112L22.457 16.344"/>
    </g>
</svg>
